HIERARCHY
ROOT ui
{
	 OFFSET 0 0 0
	 CHANNELS 3 XPosition YPosition Z Position
	 EndSite
	 {
	 OFFSET 0 -1 0
	 }
}
ROOT li
{
	 OFFSET 0 0 0
	 CHANNELS 3 XPosition YPosition Z Position
	 EndSite
	 {
	 OFFSET 0 -1 0
	 }
}
ROOT ul
{
	 OFFSET 0 0 0
	 CHANNELS 3 XPosition YPosition Z Position
	 EndSite
	 {
	 OFFSET 0 -1 0
	 }
}
ROOT ll
{
	 OFFSET 0 0 0
	 CHANNELS 3 XPosition YPosition Z Position
	 EndSite
	 {
	 OFFSET 0 -1 0
	 }
}
ROOT tt
{
	 OFFSET 0 0 0
	 CHANNELS 3 XPosition YPosition Z Position
	 EndSite
	 {
	 OFFSET 0 -1 0
	 }
}
ROOT tb
{
	 OFFSET 0 0 0
	 CHANNELS 3 XPosition YPosition Z Position
	 EndSite
	 {
	 OFFSET 0 -1 0
	 }
}
ROOT td
{
	 OFFSET 0 0 0
	 CHANNELS 3 XPosition YPosition Z Position
	 EndSite
	 {
	 OFFSET 0 -1 0
	 }
}
ROOT v
{
	 OFFSET 0 0 0
	 CHANNELS 3 XPosition YPosition Z Position
	 EndSite
	 {
	 OFFSET 0 -1 0
	 }
}
ROOT bn
{
	 OFFSET 0 0 0
	 CHANNELS 3 XPosition YPosition Z Position
	 EndSite
	 {
	 OFFSET 0 -1 0
	 }
}
MOTION
Frames: 13
Frame Time: 0.002
5.487020015716552E-4	-5.217450261116028E-4	0		0.4879206848144531	-2.365931884765625	0		-1.0381815185546874	0.023677440643310548	0		-0.8039063720703125	-2.56109326171875	0		1.1045313720703125	-0.661035400390625	0		2.68278515625	0.20394718933105468	0		4.3579755859375	0.30700836181640623	0		5.60919287109375	0.1448590087890625	0		-0.1894645080566406	5.8989970703125	0		
-0.0052786731719970705	0.004448470115661621	0		0.4521554260253906	-2.353422607421875	0		-1.1012760009765625	0.014737180709838867	0		-0.8028690185546875	-2.559227294921875	0		1.11047802734375	-0.6673193359375	0		2.686203125	0.221666259765625	0		4.35093603515625	0.29986541748046874	0		5.60342578125	0.15265655517578125	0		-0.18920437622070313	5.89886279296875	0		
-0.005205028057098389	0.004302226066589356	0		0.4879307861328125	-2.366247802734375	0		-1.10708984375	0.020733503341674803	0		-0.8059447631835938	-2.563293701171875	0		1.1105318603515626	-0.6674984741210938	0		2.730997314453125	0.20560885620117186	0		4.3471484375	0.3066634826660156	0		5.59937451171875	0.14542007446289062	0		-0.18895669555664063	5.89872216796875	0		
-0.0032890570163726807	-0.0038842499256134034	0		0.43708645629882814	-2.357466796875	0		-1.0970633544921875	0.018428369522094725	0		-0.8378350219726562	-2.556828857421875	0		1.1126517333984376	-0.6637183837890624	0		2.70257421875	0.2329151611328125	0		4.3552021484375	0.3052422790527344	0		5.60772021484375	0.15996096801757811	0		-0.17452461242675782	5.909314453125	0		
-0.0010312089920043945	0.006922835826873779	0		0.4930498352050781	-2.35967333984375	0		-1.0169671020507813	0.019815324783325195	0		-0.8347747192382813	-2.55301708984375	0		1.1126881103515625	-0.6639015502929687	0		2.727220703125	0.21022900390625	0		4.362392578125	0.31184228515625	0		5.6077783203125	0.15965933227539061	0		-0.174315185546875	5.9091650390625	0		
8.610299825668335E-4	-0.0012689089775085448	0		0.46300143432617186	-2.3612822265625	0		-1.0269049072265626	0.020870296478271485	0		-0.8029130859375	-2.559747314453125	0		1.112713134765625	-0.664084716796875	0		2.7206220703125	0.22913340759277342	0		4.35044384765625	0.31180303955078126	0		5.60367529296875	0.15144206237792968	0		-0.18833161926269532	5.8982763671875	0		
8.888570070266724E-4	-0.0014261970520019532	0		0.48787857055664063	-2.3669150390625	0		-1.03783740234375	0.022940855026245117	0		-0.80397998046875	-2.56186767578125	0		1.11065185546875	-0.6682290649414062	0		2.704434326171875	0.2172152099609375	0		4.35836572265625	0.30539971923828124	0		5.60370654296875	0.1511586151123047	0		-0.17396832275390625	5.9088603515625	0		
-0.011133012771606445	-0.0033599960803985594	0		0.46090399169921875	-2.363579833984375	0		-1.0250311279296875	0.011563446044921875	0		-0.8060562744140625	-2.563971435546875	0		1.1106514892578125	-0.6684099731445312	0		2.691547607421875	0.22224325561523436	0		4.35049853515625	0.31130029296875	0		5.60372314453125	0.15088531494140625	0		-0.1880362548828125	5.89796875	0		
9.007290005683899E-4	-0.0017422709465026854	0		0.4727442626953125	-2.369969482421875	0		-1.092852294921875	0.021693275451660155	0		-0.8610399169921875	-2.56008740234375	0		1.1127119140625	-0.664626708984375	0		2.728263671875	0.20634652709960938	0		4.35537109375	0.3039689636230469	0		5.613685546875	0.14843634033203126	0		-0.17178103637695313	5.90551416015625	0		
0.007014632225036621	0.004987778186798096	0		0.4777997131347656	-2.364228515625	0		-1.012844482421875	0.022059061050415038	0		-0.7990350341796875	-2.557389404296875	0		1.115740478515625	-0.661858642578125	0		2.716739501953125	0.23236381530761718	0		4.362490234375	0.3106069030761719	0		5.6178583984375	0.158108642578125	0		-0.17364093017578125	5.9083974609375	0		
-0.005050293922424317	0.0030588669776916502	0		0.4887320556640625	-2.364595458984375	0		-1.037869384765625	0.02238861083984375	0		-0.8360784912109375	-2.5558388671875	0		1.11264501953125	-0.66497265625	0		2.706359619140625	0.213359130859375	0		4.35761572265625	0.3184788513183594	0		5.60368359375	0.15013264465332032	0		-0.18778390502929687	5.89751025390625	0		
0.003886358022689819	0.0017405619621276855	0		0.46066104125976565	-2.36422802734375	0		-1.0379122314453124	0.02225300979614258	0		-0.8042750854492188	-2.562575439453125	0		1.1105181884765625	-0.6690999755859375	0		2.70045166015625	0.22028265380859374	0		4.35346533203125	0.31234426879882815	0		5.6094921875	0.14179383850097657	0		-0.1877450714111328	5.89736279296875	0		
-0.006355500221252442	-0.008216364860534668	0		0.4605745544433594	-2.3643798828125	0		-1.10114453125	0.013302569389343261	0		-0.8782948608398438	-2.558324951171875	0		1.1125279541015625	-0.6652984008789062	0		2.723262939453125	0.21267233276367187	0		4.34726416015625	0.30425640869140624	0		5.60358837890625	0.14968710327148438	0		-0.18772590637207032	5.89721923828125	0		
